# xmcd CD database file
#
# Track frame offsets:
#	150
#	19767
#	47380
#	71437
#	92985
#	119982
#	150835
#	166377
#	187037
#	210527
#
# Disc length: 2895 seconds
#
# Revision: 2
# Processed by: cddbd v1.5.2PL0 Copyright (c) Steve Scherf et al.
# Submitted via: CDex 1.70beta2
#
DISCID=820b4d0a
DTITLE=甲斐よしひろ - egoist
DYEAR=1990
DGENRE=Rock
TTITLE0=トランスレディ
TTITLE1=スウィート・スムース・ステイトメント
TTITLE2=NIGHT TRIPPER
TTITLE3=無法者の愛
TTITLE4=嘘 - たわごと
TTITLE5=炎
TTITLE6=シンパシー
TTITLE7=女たち
TTITLE8=エゴイスト
TTITLE9=TWO MOON JUNCTION (NIGHT TRIPPER REPRISE)
EXTD=
EXTT0=
EXTT1=
EXTT2=
EXTT3=
EXTT4=
EXTT5=
EXTT6=
EXTT7=
EXTT8=
EXTT9=
PLAYORDER=
